<?xml version="1.0" standalone="no"?>
<!DOCTYPE svg PUBLIC "-//W3C//DTD SVG 20010904//EN"
 "http://www.w3.org/TR/2001/REC-SVG-20010904/DTD/svg10.dtd">
<svg version="1.0" xmlns="http://www.w3.org/2000/svg"
 width="1280.000000pt" height="1103.000000pt" viewBox="0 0 1280.000000 1103.000000"
 preserveAspectRatio="xMidYMid meet">
<g transform="translate(0.000000,1103.000000) scale(0.100000,-0.100000)"
fill="#000000" stroke="none">
<path d="M6250 11019 c-181 -54 -267 -99 -365 -191 -183 -171 -255 -390 -211
-638 31 -171 117 -332 214 -399 100 -69 94 -57 91 -194 -1 -67 2 -251 6 -408
6 -207 5 -288 -3 -293 -24 -15 -241 69 -363 140 -174 101 -273 208 -318 342
-23 67 -27 143 -22 417 3 202 -4 246 -64 373 -54 114 -122 209 -220 307 -89
90 -240 209 -345 273 -54 33 -56 34 -145 28 -160 -9 -324 -70 -558 -204 -144
-83 -466 -244 -672 -335 -526 -232 -1083 -389 -1640 -462 -267 -35 -476 -45
-920 -45 -468 0 -516 -4 -624 -51 -59 -25 -96 -68 -86 -100 10 -31 133 -157
195 -199 67 -45 188 -107 392 -198 175 -79 270 -113 411 -147 55 -14 102 -26
104 -29 2 -2 -4 -21 -15 -43 -46 -91 -37 -158 32 -221 105 -97 323 -163 670
-203 l108 -12 -6 -44 c-15 -113 88 -199 321 -269 72 -22 115 -27 233 -31 137
-5 200 1 357 33 29 6 33 4 38 -22 22 -107 47 -147 122 -201 72 -51 158 -74
298 -80 87 -4 144 -1 206 11 47 9 89 16 92 16 4 0 7 -19 7 -42 0 -108 173
-174 520 -198 80 -5 162 -10 183 -10 20 0 37 -5 37 -10 0 -6 -32 -40 -70 -77
-180 -170 -263 -341 -262 -543 1 -156 52 -276 170 -402 141 -149 434 -300 734
-377 62 -16 114 -34 116 -40 2 -6 -11 -23 -30 -38 -183 -147 -296 -354 -314
-576 -6 -66 -3 -84 26 -173 61 -184 124 -287 258 -420 132 -132 379 -289 545
-347 28 -10 20 -22 -52 -76 -93 -69 -144 -129 -191 -226 -147 -306 -66 -665
197 -861 37 -28 154 -104 258 -169 105 -65 209 -129 232 -144 24 -14 43 -30
43 -34 0 -4 -28 -41 -63 -81 -64 -75 -173 -260 -204 -345 -12 -33 -18 -90 -21
-207 -7 -273 20 -333 246 -536 34 -32 62 -62 62 -68 0 -6 -20 -36 -45 -67 -95
-116 -161 -266 -172 -387 -10 -122 44 -251 165 -393 54 -63 55 -67 43 -97 -56
-139 -63 -170 -59 -256 3 -72 9 -94 37 -146 48 -90 86 -131 155 -166 33 -17
64 -36 68 -42 4 -6 8 -83 8 -172 0 -181 2 -186 75 -198 109 -18 182 -18 209
-1 24 16 26 23 26 85 0 91 4 100 49 100 52 0 117 37 154 88 24 33 32 55 35
100 6 78 -13 160 -48 216 -17 26 -30 52 -30 59 0 7 17 37 37 67 32 47 38 65
41 123 7 109 -10 151 -90 230 -38 37 -74 67 -79 67 -5 0 -9 6 -9 13 0 7 33 28
73 45 132 59 289 197 337 298 13 27 25 72 27 99 2 28 11 74 20 104 24 83 14
150 -41 258 -25 51 -59 107 -76 126 -35 40 -37 59 -11 95 36 52 91 172 113
249 33 115 33 327 0 433 -29 91 -82 195 -128 248 -19 22 -34 46 -34 54 0 8 74
54 168 103 304 163 405 243 511 404 64 98 131 274 131 347 0 64 -40 196 -90
299 -56 116 -136 216 -230 288 -36 27 -66 55 -68 61 -1 7 47 33 108 60 193 84
362 197 501 336 114 114 191 238 241 386 33 98 33 260 0 359 -50 151 -123 283
-205 372 -21 23 -36 46 -33 52 3 5 30 15 58 21 238 57 515 193 672 330 173
151 223 261 213 465 -6 120 -25 193 -77 303 -48 102 -88 160 -159 235 -33 35
-51 61 -45 67 5 5 90 14 189 20 218 14 293 28 390 75 81 39 96 57 105 125 4
33 9 44 20 41 154 -44 200 -52 280 -49 74 4 98 10 183 48 173 76 257 157 257
248 0 36 8 38 75 22 22 -5 94 -14 159 -20 243 -21 471 24 610 118 81 55 101
85 102 154 0 32 3 60 5 62 2 3 63 10 134 16 391 34 591 114 661 265 28 58 30
101 9 152 -20 47 -15 59 27 68 139 30 525 163 643 222 100 51 257 155 317 210
50 48 98 112 98 134 0 24 -46 73 -85 90 -103 45 -167 51 -545 44 -373 -7 -458
-3 -925 46 -618 64 -928 139 -1420 344 -321 134 -819 369 -1100 520 -188 101
-324 145 -450 145 -105 0 -172 -42 -408 -257 -199 -180 -255 -262 -327 -483
-51 -155 -56 -200 -35 -365 23 -185 18 -256 -28 -348 -65 -130 -187 -244 -353
-326 -123 -61 -338 -127 -362 -112 -11 7 0 617 14 787 5 72 6 72 56 113 108
87 182 195 225 326 22 68 26 99 27 205 1 148 -10 202 -69 325 -113 237 -359
389 -650 401 -44 1 -96 -2 -115 -7z m-252 -3348 c21 -11 21 -24 39 -810 l6
-304 -98 7 c-101 7 -242 26 -515 70 -85 14 -231 35 -325 46 -93 11 -188 25
-210 31 -141 38 -301 170 -345 284 -27 73 -37 188 -20 239 25 76 104 138 210
164 25 6 56 14 70 17 14 4 183 10 375 14 383 9 442 17 565 79 74 37 103 81 94
141 l-7 44 71 -6 c39 -3 79 -10 90 -16z m962 -61 c0 -43 5 -55 36 -90 77 -85
243 -112 682 -109 318 1 353 -4 465 -64 103 -54 142 -129 135 -256 -4 -62 -11
-88 -38 -140 -62 -116 -213 -224 -380 -270 -40 -11 -137 -28 -214 -37 -78 -8
-215 -25 -306 -35 -385 -47 -499 -59 -575 -61 l-80 -3 1 115 c3 354 26 956 38
968 13 14 103 29 184 31 l52 1 0 -50z m-131 -1510 c146 -25 374 -83 460 -117
130 -51 212 -109 249 -177 13 -23 17 -56 17 -127 0 -90 -2 -99 -38 -172 -81
-164 -319 -350 -559 -438 -108 -40 -298 -90 -311 -82 -15 9 11 1097 26 1121
11 16 19 15 156 -8z m-775 -92 c3 -40 8 -246 11 -458 3 -212 8 -406 12 -432 4
-38 2 -49 -10 -54 -19 -7 -819 486 -842 519 -36 52 -5 163 66 241 102 112 280
189 544 235 61 11 133 20 162 20 l51 1 6 -72z m40 -1660 c11 -95 16 -687 6
-693 -12 -8 -83 47 -148 115 -113 116 -192 251 -192 325 1 91 71 175 210 249
108 58 117 58 124 4z m751 -124 c102 -64 189 -123 192 -132 9 -23 -12 -54
-187 -271 -167 -208 -199 -241 -233 -241 -20 0 -20 4 -13 240 4 132 12 254 17
272 5 18 9 81 9 140 0 86 3 108 14 108 8 0 98 -52 201 -116z"/>
</g>
</svg>
